Simulation
nRows=23
nColumns=15
endheader
time  TH_x TH_y TH_z SC_y  SC_z  SC_x  AC_y  AC_z  AC_x  GH_y  GH_z  GH_yy  EL_x  PS_y
5.382082397003745  0.000000  0.000000  0.000000  -43.86505546718785  17.026563795382266  24.968595831460842  55.655868494376776  17.83000128676097  21.720655377622915  -0.8480445647966796  52.6668895186621  6.2611471000195476  13.471801013676341  120.000000
5.422247191011236  0.000000  0.000000  0.000000  -43.988834660514364  17.06079438817859  25.101956586599005  55.617153494044004  17.7894088496182  21.740496844560525  -0.6752927785879964  52.474256112780004  6.111725676369333  13.491835141998697  120.000000
5.4624119850187265  0.000000  0.000000  0.000000  -43.978663914550175  17.101807491242813  25.107797803255323  55.541718562867466  17.7345060175799  21.684164448408616  -0.4626055668556502  51.99174127269717  6.0718708734504885  13.431085425112341  120.000000
5.502576779026217  0.000000  0.000000  0.000000  -43.82901779063232  17.147828845435228  24.982234290785755  55.430769356336924  17.664487393828015  21.54791623479214  -0.2160547896422699  51.19936459198807  6.1314296133859605  13.30588113347247  120.000000
5.542741573033708  0.000000  0.000000  0.000000  -43.536125087450976  17.195119758564978  24.723282169221864  55.28574456958319  17.579127847856956  21.32941101911337  0.05513693639075394  50.08077094742743  6.277247444758192  13.138696591839144  120.000000
5.582906367041199  0.000000  0.000000  0.000000  -43.09928574008118  17.23856426397348  24.331126001883632  55.108715230432395  17.47847129993222  21.027580071467977  0.3396983998792622  48.62581860404581  6.495775957926542  12.95398058174022  120.000000
5.623071161048689  0.000000  0.000000  0.000000  -42.52189073022663  17.27218591340651  23.808503220171495  54.90262878557451  17.36260314944744  20.642681593359306  0.6256350126829745  46.83293217258086  6.775722226404776  12.774002917240015  120.000000
5.66323595505618  0.000000  0.000000  0.000000  -41.811867602652256  17.28959515637596  23.161173106327904  54.67145498143604  17.231568478534204  20.176584839786237  0.9014595790479307  44.71073339735253  7.110206032041249  12.61551281717605  120.000000
5.70340074906367  0.000000  0.000000  0.000000  -40.981428669446466  17.284313515941513  22.398327353801854  54.42023241410548  17.085389413447494  19.63325095521702  1.1570392318318592  42.278625890944134  7.498012316111779  12.48802231152148  120.000000
5.743565543071161  0.000000  0.000000  0.000000  -40.04620519321671  17.250013851721278  21.53277514443185  54.15504250443438  16.924147552465165  19.01920006807834  1.3838012172090293  39.56612016875127  7.94387438812265  12.393890243605906  120.000000
5.7837303370786515  0.000000  0.000000  0.000000  -39.02406170038818  17.18076852803318  20.580739010128354  53.88289159887254  16.748046155666923  18.343667855831626  1.574098404010362  36.611068743733284  8.45823010434135  12.32965983166861  120.000000
5.823895131086142  0.000000  0.000000  0.000000  -37.93400993457043  17.07135993089362  19.56127735464803  53.61151931531723  16.55751940283227  17.61821084788352  1.7195938404739795  33.45725329400436  9.057131561539284  12.288030233356185  120.000000
5.864059925093633  0.000000  0.000000  0.000000  -36.79518745877994  16.917749664945287  18.495471629383253  53.349235559687784  16.353315869181817  16.85600136264994  1.8089374145203445  30.151786642656468  9.76260745991596  12.259867890355462  120.000000
5.904224719101124  0.000000  0.000000  0.000000  -35.625761468247376  16.71727185667937  17.405438731467143  53.10479920285006  16.13649768096483  16.071159449977557  1.8246649724859163  26.74274381453825  10.603995592474172  12.236202905369076  120.000000
5.944389513108614  0.000000  0.000000  0.000000  -34.44245592686201  16.468730189622317  16.313416164944364  52.887103012550725  15.908349072526175  15.278233494209436  1.7374436734467686  23.27733255887264  11.622120822028833  12.209663522771411  120.000000
5.984554307116105  0.000000  0.000000  0.000000  -33.260855000465746  16.17277102077657  15.241113837593161  52.70456798660946  15.670616864100605  14.491345257296878  1.4948171309748088  19.800908381380033  12.879260609086392  12.175200490146054  120.000000
6.024719101123596  0.000000  0.000000  0.000000  -32.09582826935112  15.832173989531132  14.209349191625936  52.56437502543086  15.425826832934458  13.723422500989212  0.9985950352001811  16.356698880217813  14.48078439225365  12.130704999735308  120.000000
6.064883895131086  0.000000  0.000000  0.000000  -30.961592326130045  15.451829718213554  13.237591208367768  52.472050682644436  15.177282041141225  12.985849921150288  0.05317357619358515  12.986053584667856  16.626269000598334  12.07736576045548  120.000000
6.1050486891385765  0.000000  0.000000  0.000000  -29.871438065614175  15.038495694565732  12.343355664280754  52.43141839698782  14.928876747805036  12.288181922301918  -1.7763977974571614  9.729858344182231  19.75116218297442  12.01992645871393  120.000000
6.145213483146067  0.000000  0.000000  0.000000  -28.837358753419576  14.600438429039404  11.541608653284175  52.444776696896135  14.68475511778159  11.638032042977947  -5.658712075528218  6.635134135393484  25.02122511352813  11.96659629299465  120.000000
6.185378277153558  0.000000  0.000000  0.000000  -27.869577552481662  14.146975669035571  10.844254967021358  52.51319114751598  14.448893547276588  11.041080243319737  -15.96311826995026  3.7914540159028647  36.79998010161358  11.928456874632406  120.000000
6.225543071161049  0.000000  0.000000  0.000000  -26.976012007288517  13.687894775483723  10.259714106674496  52.63685587927177  14.224584461490826  10.501261583247823  -59.143675073872096  1.703279170105374  81.53323249390316  11.91857722457733  120.000000
6.265707865168539  0.000000  0.000000  0.000000  -26.16177258026062  13.232759517677694  9.79261564970857  52.81547074315002  14.013918962264071  10.020981981867818  -131.6807778314869  2.5518110008095327  155.6912149009267  11.950810053566633  120.000000
